<svg version="1.1" xmlns="http://www.w3.org/2000/svg" style="display: block;" viewBox="0 0 2048 2048" width="1024" height="1024" preserveAspectRatio="none">

<path transform="translate(0,0)" fill="rgb(8,7,6)" d="M 492.187 897.553 C 493.85 885.852 499.281 870.575 502.372 858.944 C 507.974 837.869 514.141 818.065 521.365 797.539 C 572.591 651.993 661.46 514.584 785.851 421.235 C 869.353 358.571 970.295 320.926 1075.84 336.687 C 1211.36 356.922 1327.42 454.845 1407.38 561.259 C 1494.43 677.114 1549.43 816.525 1574.91 958.601 C 1582.19 999.21 1585.21 1034.35 1588.14 1074.95 C 1602.61 1080.2 1611.65 1085.4 1619.97 1099.19 C 1619.66 1131.94 1619.6 1164.69 1619.77 1197.44 L 1610.47 1202.26 C 1695.42 1266.73 1702.46 1338.44 1700.2 1435.85 C 1698.33 1516.55 1708.52 1569.05 1655.2 1639.09 C 1621.99 1682.22 1572.98 1710.36 1518.99 1717.29 C 1497.98 1720.1 1471.66 1719.47 1450.08 1719.53 L 1354.17 1719.69 L 1032.88 1719.73 L 703.323 1719.65 L 604.714 1719.59 C 582.395 1719.57 555.725 1720.22 534.037 1717.45 C 498.499 1712.81 464.826 1698.83 436.446 1676.94 C 389.246 1640.46 362.129 1592.49 354.586 1533.19 C 350.957 1504.66 353.995 1475.59 352.937 1447.29 C 349.178 1346.74 355.203 1269.21 441.828 1202.85 C 439.601 1201.5 436.025 1199.48 433.972 1198.08 C 433.867 1166.5 432.637 1131.09 433.255 1100.03 C 441.506 1086.58 451.697 1079.14 467.118 1075.19 C 468.925 1062.37 468.82 1043.37 470.407 1029.34 C 474.813 990.403 480.558 934.648 492.187 897.553 z"/>
<path transform="translate(0,0)" fill="rgb(250,95,54)" d="M 1604.43 1204.87 C 1622.02 1208.09 1658.86 1256.86 1667.92 1272.47 C 1680.2 1294.05 1688.62 1317.59 1692.82 1342.06 C 1697.66 1370.18 1696.19 1405.94 1696 1435.22 C 1695.78 1470.34 1699.18 1517.98 1690.36 1551.41 C 1620.95 1552.4 1550.1 1550.81 1480.5 1551.18 L 377.25 1551.88 L 361.544 1551.75 C 354.538 1516.01 357.674 1481.31 356.987 1445.58 C 355.713 1379.37 352.88 1316.19 393.348 1259.19 C 406.903 1240.1 425.969 1217.75 446.467 1205.45 C 481.888 1219.2 514.732 1230.94 552.043 1239.05 C 683.166 1267.55 819.072 1279.22 952.993 1281.91 C 1111.35 1285.09 1271.2 1279.41 1427.31 1251.54 C 1487.76 1240.75 1547.42 1228.53 1604.43 1204.87 z"/>
<path transform="translate(0,0)" fill="rgb(8,7,6)" d="M 1478.67 1276.39 C 1483.49 1275.79 1492.86 1275.9 1497.71 1276.24 C 1529.77 1278.27 1559.67 1293.09 1580.7 1317.37 C 1597.7 1307.81 1616.5 1298.81 1633.89 1289.49 C 1636.64 1294.72 1640.07 1300.35 1643.06 1305.5 C 1630.78 1314.09 1609.51 1331.07 1598.17 1340.98 C 1626.06 1401.96 1611.73 1461.2 1556.6 1500.34 C 1540.75 1510.36 1522.89 1516.78 1504.3 1519.15 C 1472.06 1522.96 1439.82 1512.7 1414.67 1492.43 C 1389.31 1471.92 1373.19 1442.14 1369.87 1409.7 C 1366.74 1377.42 1376.51 1345.21 1397.05 1320.12 C 1418.12 1294.22 1445.7 1279.93 1478.67 1276.39 z"/>
<path transform="translate(0,0)" fill="rgb(253,253,252)" d="M 1478.9 1317.29 C 1508.01 1314.9 1521.12 1319.87 1545.13 1336 C 1528.49 1346.16 1505.9 1354.28 1488.3 1364.51 C 1455.61 1383.51 1483.66 1425.3 1508.63 1410.76 C 1527.35 1399.85 1548.16 1380.03 1566.62 1366.76 C 1573.57 1387.95 1573.96 1404.45 1567.13 1425.38 C 1565.02 1431.03 1562.28 1436.43 1558.96 1441.47 C 1546.58 1460.2 1528.73 1472.38 1506.72 1476.69 C 1485.16 1480.91 1462.8 1476.39 1444.55 1464.14 C 1386.41 1424.52 1403.82 1330.74 1478.9 1317.29 z"/>
<path transform="translate(0,0)" fill="rgb(253,253,252)" d="M 500.817 1043.21 C 503.89 1028.22 504.268 1009.88 506.366 994.51 C 525.002 857.953 574.613 720.827 653.156 607.158 C 728.532 498.072 840.467 394.251 975.221 370.19 C 1071.6 352.885 1163.75 385.514 1241.27 441.457 C 1383.03 542.333 1477 707.017 1522.98 872.428 C 1532.5 906.685 1540.36 947.043 1546.37 982.058 L 1548.26 983.043 C 1548.22 988.591 1550.45 994.898 1550.62 999.917 C 1551.16 1015.36 1560.61 1068.42 1556.18 1079.67 C 1556.18 1082.83 1556.12 1086.17 1556.24 1089.31 C 1556.02 1093.58 1556.71 1094.39 1554.68 1097.29 C 1549.19 1095.74 1544.23 1093.61 1538.93 1091.6 C 1477.27 1068.12 1410.38 1058.06 1345.25 1047.98 C 1343.9 1035.42 1340.53 1018.68 1338.34 1005.86 L 1338.73 1003.72 C 1341.76 1002.88 1343.15 1002.98 1346.23 1002.91 C 1342.45 1002.3 1340 1002.55 1337.41 1000.37 C 1327.46 957.957 1317.34 917.722 1300.74 876.834 C 1251.63 755.8 1135.05 590.669 983.567 627.146 C 904.525 646.179 839.381 717.734 798.531 785.081 C 754.549 856.645 733.24 923.76 712.305 1003.6 C 692.546 1005.02 657.304 1010.47 636.714 1014.22 C 600.184 1020.88 547.496 1029.02 513.104 1040.06 C 509.23 1040.81 504.705 1042.16 500.817 1043.21 z"/>
<path transform="translate(0,0)" fill="rgb(250,95,54)" d="M 1338.34 1005.86 C 1358.12 1006.65 1381.6 1011.56 1401.41 1014.4 C 1454.17 1021.95 1502.34 1032.67 1553.76 1046.98 C 1554.76 1057.6 1555.02 1069.52 1556.18 1079.67 C 1556.18 1082.83 1556.12 1086.17 1556.24 1089.31 C 1556.02 1093.58 1556.71 1094.39 1554.68 1097.29 C 1549.19 1095.74 1544.23 1093.61 1538.93 1091.6 C 1477.27 1068.12 1410.38 1058.06 1345.25 1047.98 C 1343.9 1035.42 1340.53 1018.68 1338.34 1005.86 z"/>
<path transform="translate(0,0)" fill="rgb(25,6,6)" d="M 1546.37 982.058 L 1548.26 983.043 C 1548.22 988.591 1550.45 994.898 1550.62 999.917 C 1551.16 1015.36 1560.61 1068.42 1556.18 1079.67 C 1555.02 1069.52 1554.76 1057.6 1553.76 1046.98 C 1502.34 1032.67 1454.17 1021.95 1401.41 1014.4 C 1381.6 1011.56 1358.12 1006.65 1338.34 1005.86 L 1338.73 1003.72 C 1341.76 1002.88 1343.15 1002.98 1346.23 1002.91 C 1356.05 1002.73 1382.46 1007.35 1392.77 1008.79 C 1448.65 1016.61 1499 1027.84 1553.25 1042.92 C 1552.54 1024.25 1548.48 1001.08 1546.37 982.058 z"/>
<path transform="translate(0,0)" fill="rgb(253,253,252)" d="M 755.387 969.073 C 757.727 959.95 760.349 950.902 763.249 941.942 C 794.875 841.731 858.15 723.44 954.866 672.755 C 987.204 655.808 1028.83 648.309 1064.24 659.534 C 1068.54 660.75 1085.02 666.303 1088.57 668.451 C 1094.88 671.226 1098.09 672.782 1104.03 676.302 C 1110.82 696.96 1114.93 710.154 1126.53 729.254 C 1138.49 748.944 1155.72 768.156 1165.37 788.735 C 1204.63 872.394 1229.51 975.051 1224.54 1067.78 C 1223.16 1093.5 1216.24 1121.33 1208.52 1145.13 C 1175.33 1147.93 1140.61 1148.1 1107.26 1149.43 C 1095.59 1149.9 1071.14 1149.53 1060.81 1150.85 C 1046.61 1149.58 1007.14 1150.71 991.292 1150.75 C 989.646 1151.1 978.893 1152.42 978.982 1152.38 C 978.456 1152.11 1000.99 1153.55 1003.1 1153.84 C 993.861 1154.17 956.988 1154.28 949.727 1153.06 C 948.915 1146.88 936.881 1152.92 932.257 1149.31 C 908.66 1148.47 885.068 1147.47 861.485 1146.29 C 857.313 1146.16 853.144 1145.94 848.98 1145.65 C 810.521 1143.98 771.358 1140.17 732.853 1137.76 C 729.912 1132.35 730.835 1103.51 731.104 1095.51 C 731.939 1070.69 736.158 1045.59 741.727 1021.42 C 742.248 1015.12 745.876 1003.62 747.644 996.964 L 748.154 995.016 L 749.226 991.019 C 749.602 989.637 749.903 988.381 750.262 987.021 L 751.303 983.019 C 752.645 978.183 753.757 973.854 755.387 969.073 z"/>
<path transform="translate(0,0)" fill="rgb(41,37,38)" d="M 949.188 1149.19 C 949.77 1142.71 950.027 1139.42 948.812 1129.99 C 948.262 1125.73 936.663 1105.98 951.985 1105.22 C 956.283 1105.01 970.997 1114.01 973.709 1117.63 C 981.669 1128.01 979.645 1138.21 978.791 1150.23 C 983.04 1150.36 987.047 1150.41 991.292 1150.75 C 989.646 1151.1 978.893 1152.42 978.982 1152.38 C 978.456 1152.11 1000.99 1153.55 1003.1 1153.84 C 993.861 1154.17 956.988 1154.28 949.727 1153.06 C 948.915 1146.88 936.881 1152.92 932.257 1149.31 C 937.288 1149.04 943.942 1149.27 949.188 1149.19 z"/>
<path transform="translate(0,0)" fill="rgb(41,37,38)" d="M 755.387 969.073 C 760.056 966.909 771.445 960.727 773.979 969.038 C 778.391 983.511 762.253 997.41 761.767 1012.49 C 761.232 1029.09 754.155 1031.48 741.727 1021.42 C 742.248 1015.12 745.876 1003.62 747.644 996.964 L 748.154 995.016 L 749.226 991.019 C 749.602 989.637 749.903 988.381 750.262 987.021 L 751.303 983.019 C 752.645 978.183 753.757 973.854 755.387 969.073 z"/>
<path transform="translate(0,0)" fill="rgb(41,37,38)" d="M 1064.24 659.534 C 1068.54 660.75 1085.02 666.303 1088.57 668.451 C 1090.5 678.414 1089.59 688.78 1077.5 688.758 C 1062.26 688.732 1063.91 667.905 1064.24 659.534 z"/>
<path transform="translate(0,0)" fill="rgb(41,37,38)" d="M 852.944 1142.84 C 853.2 1133.6 846.053 1118.05 849.749 1113.88 C 858.999 1103.44 861.736 1120.16 863.229 1126.47 C 866.976 1139.14 864.435 1136.32 860.132 1143.84 C 857.048 1143.57 855.907 1143.52 852.944 1142.84 z"/>
<path transform="translate(0,0)" fill="rgb(236,217,205)" d="M 848.98 1145.65 C 850.804 1144.01 850.864 1143.79 852.944 1142.84 C 855.907 1143.52 857.048 1143.57 860.132 1143.84 L 861.485 1146.29 C 857.313 1146.16 853.144 1145.94 848.98 1145.65 z"/>
<path transform="translate(0,0)" fill="rgb(41,37,38)" d="M 1160.93 1051 C 1174.76 1054.71 1169.23 1061.37 1176.25 1070.4 C 1187.12 1084.38 1177.85 1104.64 1164.54 1115.56 C 1156.48 1116.66 1150.11 1113.98 1149.02 1105 C 1146.77 1086.49 1138.23 1060.74 1160.93 1051 z"/>
<path transform="translate(0,0)" fill="rgb(41,37,38)" d="M 944.195 805.547 C 955.979 807.069 951.243 813.062 954.905 821.997 C 958.49 830.745 970.214 842.007 957.006 850.641 L 955.664 851.569 C 932.61 847.876 931.574 821.368 943.055 807.04 L 944.195 805.547 z"/>
<path transform="translate(0,0)" fill="rgb(41,37,38)" d="M 1082.09 943.811 C 1085.11 943.92 1087.93 943.485 1090.21 945.844 C 1095.35 951.18 1093.35 975.062 1092.95 982.475 C 1087.79 988.052 1087.71 988.35 1081.07 991.596 C 1064.03 988.784 1070.72 971.197 1076.16 961.011 C 1078.17 957.255 1079.23 950.181 1081.3 945.617 L 1082.09 943.811 z"/>
<path transform="translate(0,0)" fill="rgb(41,37,38)" d="M 1039.87 782.541 C 1052.03 784.32 1045.8 786.587 1050.65 793.257 C 1057.27 802.348 1065.09 807.458 1053.43 819.201 C 1031.15 827.151 1033.82 793.838 1039.87 782.541 z"/>
<path transform="translate(0,0)" fill="rgb(41,37,38)" d="M 952.854 705.645 C 968.221 707.982 978.936 727.693 967.683 738.906 C 954.16 739.869 952.562 738.918 949.28 724.469 C 947.026 714.544 945.977 712.447 952.854 705.645 z"/>
<path transform="translate(0,0)" fill="rgb(41,37,38)" d="M 822.899 1019.52 C 833.202 1020.99 830.939 1025.05 835.589 1034.13 C 840.361 1043.44 844.014 1048.69 836.442 1056.71 C 831.696 1057.95 821.167 1058.81 821.066 1052.04 C 820.881 1039.75 815.564 1029.79 822.899 1019.52 z"/>
<path transform="translate(0,0)" fill="rgb(41,37,38)" d="M 1000.44 1031.03 C 1016.93 1032.72 1019.75 1049.95 1007.9 1057.95 L 1006.41 1059.02 L 1005.43 1058.7 C 991.643 1054.31 982.576 1036.96 1000.44 1031.03 z"/>
<path transform="translate(0,0)" fill="rgb(41,37,38)" d="M 940.395 898.487 C 956.453 900.777 947.134 914.091 952.887 926.817 C 956.053 933.822 956.42 936.868 951.614 942.27 C 938.288 932.241 933.875 913.91 940.395 898.487 z"/>
<path transform="translate(0,0)" fill="rgb(41,37,38)" d="M 1067.52 1068.5 C 1075.05 1073.56 1083.49 1095.16 1075.01 1101.04 L 1071.85 1103.19 C 1066.29 1101.33 1065.28 1100.97 1064.19 1094.49 C 1061.77 1080.17 1055.15 1077.8 1067.52 1068.5 z"/>
<path transform="translate(0,0)" fill="rgb(41,37,38)" d="M 1177.03 972.615 C 1186.95 977.821 1181.62 988.976 1187.01 998.514 C 1189.82 1003.48 1186.22 1007.57 1182.2 1010.72 C 1178.53 1008.91 1175.82 1008.48 1175.19 1003.99 C 1174.14 996.472 1170.22 989.318 1171.29 981.5 C 1171.92 976.879 1173.51 975.319 1177.03 972.615 z"/>
<path transform="translate(0,0)" fill="rgb(41,37,38)" d="M 1022.05 683.716 L 1022.89 683.813 C 1034.76 685.076 1029.93 691.648 1033.26 700.444 C 1035.89 707.36 1036.13 708.588 1032.57 714.374 C 1017.09 710.928 1015.39 696.132 1022.05 683.716 z"/>
<path transform="translate(0,0)" fill="rgb(41,37,38)" d="M 825.531 900.63 C 836.666 907.923 824.693 926.637 818.812 928.295 L 817.203 928.799 C 813.253 926.049 809.23 923.658 811.065 918.02 C 813.672 910.003 818.584 905.04 825.531 900.63 z"/>
<path transform="translate(0,0)" fill="rgb(41,37,38)" d="M 782.052 1091.38 C 788.841 1095.72 787.388 1097.78 787.967 1105.86 C 788.729 1116.48 792.106 1116.51 782.921 1122.19 C 780.153 1120.61 774.772 1118.74 775.199 1114.54 C 775.993 1106.73 774.812 1098.7 780.738 1092.74 L 782.052 1091.38 z"/>
<path transform="translate(0,0)" fill="rgb(41,37,38)" d="M 1110.21 745.606 C 1116.6 746.358 1120.2 747.058 1122.28 753.974 C 1123.67 758.627 1123.13 763.643 1120.78 767.893 C 1120.28 768.791 1119.69 769.752 1119.17 770.657 C 1105.04 777.416 1108.19 751.756 1110.21 745.606 z"/>
<path transform="translate(0,0)" fill="rgb(41,37,38)" d="M 1110.54 854.309 C 1125.48 857.966 1123.35 869.826 1116.93 880.445 L 1116.44 880.695 C 1114.46 881.658 1113.05 882.375 1110.99 881.177 C 1109.84 880.514 1109.06 879.362 1108.87 878.053 C 1107.65 869.681 1105.73 861.25 1110.54 854.309 z"/>
<path transform="translate(0,0)" fill="rgb(41,37,38)" d="M 894.677 768.775 C 903.653 769.974 902.28 776.411 896.585 780.986 C 892.138 784.559 889.003 789.124 884.204 792.952 C 868.314 786.275 886.353 774.361 894.677 768.775 z"/>
<path transform="translate(0,0)" fill="rgb(41,37,38)" d="M 1013.64 865.451 C 1021.08 865.804 1021.99 869.589 1025.12 876.503 C 1027.07 880.817 1022.6 887.725 1020.66 891.678 C 1016.88 894.9 1012.34 892.303 1012.7 889.015 C 1013.73 879.582 1009.27 873.401 1013.64 865.451 z"/>
<path transform="translate(0,0)" fill="rgb(41,37,38)" d="M 1172.77 856.29 C 1188.93 860.266 1176.94 876.573 1172.54 887.495 C 1157.1 884.543 1170.79 873.882 1170.94 863.472 C 1170.97 861.44 1172.17 858.192 1172.77 856.29 z"/>
<path transform="translate(0,0)" fill="rgb(41,37,38)" d="M 882.07 950.526 C 891.571 951.821 891.439 955.904 887.866 963.999 C 885.703 968.897 884.334 972.418 881.385 977.051 C 879.437 977.048 874.499 977.153 874.243 974.389 C 873.738 968.926 879.611 955.167 882.07 950.526 z"/>
<path transform="translate(0,0)" fill="rgb(41,37,38)" d="M 828.183 833.498 C 842.989 837.437 833.375 849.367 825.51 855.221 C 812.639 853.272 823.718 839.302 828.183 833.498 z"/>
<path transform="translate(0,0)" fill="rgb(41,37,38)" d="M 921.77 1026.27 C 931.412 1028.33 933.403 1036.07 927.409 1043.48 L 926.176 1045.07 C 915.629 1047.3 919.477 1031.69 921.77 1026.27 z"/>
<path transform="translate(0,0)" fill="rgb(250,95,54)" d="M 400.037 1631.49 C 418.905 1630.4 442.685 1631.05 461.89 1631.13 L 563.153 1631.39 L 879.181 1631.37 L 1416.9 1631.28 C 1494.87 1631.34 1577.07 1629.92 1654.61 1631.3 C 1642.3 1650.52 1628.65 1662.48 1610.86 1676.17 C 1592.31 1689.65 1571.6 1699.88 1549.62 1706.4 C 1508.52 1718.58 1455.92 1715.1 1412.04 1715.1 L 1285.22 1715.24 L 874.086 1715.2 L 660.847 1715.15 L 591.819 1715.25 C 577.673 1715.26 560.048 1715.68 546.171 1714.53 C 517.474 1712.26 489.584 1703.93 464.345 1690.09 C 448.9 1681.63 402.873 1647.46 398.484 1632.57 L 400.037 1631.49 z"/>
<path transform="translate(0,0)" fill="rgb(250,95,54)" d="M 1588.76 1089.99 C 1588.79 1086.2 1588.88 1084.42 1589.37 1080.66 L 1590.79 1080.01 C 1599.54 1082.3 1615.25 1094.05 1615.7 1103.86 C 1605.02 1135.39 1404.87 1163.65 1369.6 1167.73 C 1288.15 1177.9 1206.33 1184.74 1124.33 1188.25 C 997.606 1193.18 870.692 1189.08 744.552 1175.96 C 656.656 1167.14 569.001 1153.92 483.967 1129.46 C 448.25 1119.19 411.186 1101.95 466.87 1079.14 C 466.939 1081.17 466.93 1088.13 468.304 1089.03 C 475.498 1093.77 489.889 1097.47 498.228 1099.85 C 556.443 1116.06 615.767 1127.99 675.724 1135.54 C 693.198 1137.84 718.905 1141.45 736.371 1141.67 C 784.83 1146.01 833.386 1149.18 881.997 1151.19 C 904.506 1152.14 927.197 1153.46 949.727 1153.06 C 956.988 1154.28 993.861 1154.17 1003.1 1153.84 C 1030.43 1154.25 1057.76 1154.26 1085.1 1153.86 C 1111.16 1154.35 1150.66 1152.15 1176.94 1151.04 C 1267.59 1147.23 1369.35 1140.25 1458.63 1123.68 C 1491.89 1117.33 1524.87 1109.64 1557.52 1100.65 C 1568.64 1097.19 1577.87 1094.16 1588.76 1089.99 z"/>
<path transform="translate(0,0)" fill="rgb(250,95,54)" d="M 517.581 1042.77 C 553.754 1032.94 592.336 1025.72 629.361 1019.53 C 654.814 1015.28 686.156 1009.26 711.795 1007.38 C 708.866 1021.02 706.046 1036.15 702.869 1049.57 C 650.271 1057.5 602.867 1065.58 550.959 1078.83 C 538.665 1082.06 526.547 1085.93 514.655 1090.42 C 511.606 1091.54 501.155 1095.96 499.123 1096.36 C 498.562 1078.72 499.973 1064.86 500.549 1047.52 C 499.805 1045.3 500.063 1045.63 500.817 1043.21 C 504.705 1042.16 509.23 1040.81 513.104 1040.06 L 517.581 1042.77 z"/>
<path transform="translate(0,0)" fill="rgb(25,6,6)" d="M 500.817 1043.21 C 504.705 1042.16 509.23 1040.81 513.104 1040.06 L 517.581 1042.77 C 511.965 1044.08 506.056 1046.24 500.549 1047.52 C 499.805 1045.3 500.063 1045.63 500.817 1043.21 z"/>
<path transform="translate(0,0)" fill="rgb(253,253,252)" d="M 1252.98 1060.78 C 1267.88 1059.62 1267.25 1069.38 1268.88 1082.02 C 1269.35 1085.72 1267.88 1087.23 1265.5 1089.85 C 1253.54 1092.08 1253.52 1082.86 1249.92 1072.49 C 1248.31 1067.88 1250.32 1064.47 1252.98 1060.78 z"/>
<path transform="translate(0,0)" fill="rgb(253,253,252)" d="M 1246.29 868.544 C 1258.68 870.047 1260.07 877.214 1262.97 889.508 C 1263.75 892.826 1261.84 895.614 1259.76 898.099 C 1246.5 897.86 1246.4 896.311 1244.05 882.493 C 1242.94 875.97 1242.69 873.768 1246.29 868.544 z"/>
<path transform="translate(0,0)" fill="rgb(253,253,252)" d="M 1180.5 753.379 C 1183.8 754.198 1188.58 755.61 1188.91 759.483 C 1189.63 767.857 1190.68 775.641 1186.19 782.65 C 1176.09 779.364 1182.05 772.065 1178.89 762.994 C 1177.25 758.282 1178.33 757.06 1180.5 753.379 z"/>
<path transform="translate(0,0)" fill="rgb(236,217,205)" d="M 1314.68 1122.76 C 1318.28 1124.26 1320.65 1125.61 1321.03 1129.95 C 1321.76 1138.31 1323.29 1137.5 1315.45 1139.19 C 1305.93 1138.85 1308.07 1139.33 1309.05 1129 C 1309.31 1126.27 1312.64 1124 1314.68 1122.76 z"/>
<path transform="translate(0,0)" fill="rgb(236,217,205)" d="M 1278.27 992.435 C 1288.88 993.431 1289.34 999.393 1286.69 1009.57 C 1285.94 1009.72 1283.92 1010.21 1282.98 1010.16 C 1282.15 1010.11 1281.38 1009.72 1280.84 1009.08 C 1277.89 1005.63 1277.99 996.657 1278.27 992.435 z"/>
</svg>