<svg version="1.1" xmlns="http://www.w3.org/2000/svg" style="display: block;" viewBox="0 0 2048 2048" width="1024" height="1024" preserveAspectRatio="none">
<path transform="translate(0,0)" fill="rgb(12,14,15)" d="M 989.541 594.423 C 1003.89 593.052 1020.01 593.885 1034.48 593.518 C 1159.34 590.357 1325.2 648.161 1368.1 778.602 C 1436.38 765.112 1503.48 746.202 1568.75 722.05 C 1584.44 716.144 1599.94 709.764 1615.24 702.92 C 1643.04 690.673 1659.49 680.99 1690.64 686.979 C 1734.7 695.452 1763.65 737.561 1757.08 781.715 C 1755.82 790.157 1753.1 798.228 1751.81 806.65 C 1734.49 976.153 1638.82 1125.55 1496.35 1220.7 C 1507.87 1236.1 1519.05 1250.25 1529.3 1266.64 C 1564.73 1323.55 1583.91 1389.08 1584.75 1456.11 L 1584.99 1523.87 C 1585.01 1541 1585.48 1558.83 1583.84 1575.82 C 1579.61 1620.34 1560.03 1662.01 1528.44 1693.67 C 1502.82 1719.2 1470.76 1737.33 1435.67 1746.11 C 1406.63 1753.19 1381.36 1752.1 1351.97 1752.12 L 1284.3 1752.13 L 1063.38 1752.23 L 771.192 1752.08 L 696.225 1752.21 C 673.652 1752.29 650.14 1753.39 628.002 1749.21 C 594.96 1743.09 564.021 1728.65 538.103 1707.26 C 498.614 1675.17 473.69 1628.55 468.945 1577.89 C 466.371 1550.31 468.683 1522.55 467.653 1495.2 C 463.637 1388.52 486.932 1304.42 555.854 1221.49 C 542.859 1211.65 529.385 1203.3 516.106 1192.83 C 466.807 1154.08 424.033 1107.69 389.407 1055.41 C 352.143 999.529 325.405 937.308 310.512 871.813 C 306.015 851.481 303.263 832.181 300.183 811.72 C 296.618 788.036 289.244 777.853 294.612 752.918 C 299.446 730.438 313.107 710.841 332.529 698.53 C 349.884 687.636 370.534 683.234 390.823 686.104 C 407.124 688.464 425.323 697.626 440.493 704.32 C 518.954 738.938 600.784 760.911 684.257 779.117 C 689.773 754.637 712.203 720.008 729.15 701.888 C 796.665 629.699 893.788 599.281 989.541 594.423 z"/>
<path transform="translate(0,0)" fill="rgb(6,122,134)" d="M 375.728 688.427 C 398.605 686.997 418.029 697.966 438.435 706.773 C 454.02 713.528 469.798 719.827 485.749 725.663 C 656.953 789.552 861.211 817.435 1043.92 815.393 C 1169.51 813.596 1294.57 798.782 1417.1 771.189 C 1471.85 758.119 1525.68 741.496 1578.27 721.425 C 1602.48 712.121 1629.7 697.828 1653.28 690.767 C 1701.62 676.287 1754.42 715.927 1755.06 766.328 C 1755.26 782.566 1751.13 792.36 1748.92 807.469 C 1746.59 823.389 1744.76 838.463 1741.89 854.194 C 1735.49 887.864 1725.71 920.801 1712.68 952.5 C 1666.95 1066.45 1592.31 1151.15 1492.05 1220.36 C 1504.08 1236.27 1515.6 1250.66 1526.32 1267.59 C 1559.42 1320.44 1578.49 1380.87 1581.71 1443.15 C 1583.07 1468.04 1582.15 1501.03 1582.11 1526.5 C 1582.35 1584.87 1579.63 1626.72 1540.3 1675.65 C 1507.72 1716.51 1460.09 1742.56 1408.1 1747.95 C 1391.7 1749.72 1369.66 1749.11 1352.56 1749.11 L 1263.32 1749.06 L 976.45 1749.08 L 749.605 1749.07 L 687.133 1749.18 C 670.525 1749.26 654.956 1749.85 638.443 1747.69 C 552.134 1736.4 479.356 1665.89 472.356 1577.85 C 469.717 1549.95 471.661 1520.98 470.941 1493.09 C 469.422 1434.23 473.545 1379.98 496.228 1324.83 C 512.751 1284.65 532.785 1254.59 560.356 1221.09 C 544.579 1208.12 524.722 1196.21 506.875 1181.47 C 411.819 1103.63 344.575 997.052 315.237 877.742 C 310.134 856.824 306.717 836.415 304.068 815.1 C 302.492 802.424 297.411 788.952 296.3 776.397 C 294.5 755.145 301.365 734.067 315.334 717.951 C 331.809 698.573 350.909 690.528 375.728 688.427 z"/>
<path transform="translate(0,0)" fill="rgb(12,14,15)" d="M 418.142 822.326 C 422.491 823.511 434.068 828.974 439.022 831.03 C 451.886 836.368 464.624 841.986 477.863 846.495 C 667.346 911.025 894.479 936.919 1094.23 929.457 C 1186.71 925.676 1278.83 915.554 1369.93 899.161 C 1450.83 884.66 1560.2 857.256 1634.28 821.791 C 1613.82 892.63 1587.14 959.57 1541.94 1018.35 C 1476.34 1100.89 1385.09 1156.02 1284.77 1186.45 C 1229.82 1203.08 1173.02 1212.84 1115.67 1215.52 C 1089.13 1216.68 1057.13 1215.95 1030.16 1215.8 C 998.413 1215.2 965.959 1216.81 934.308 1215.5 C 739.344 1207.45 531.183 1111.35 452.646 922.533 C 438.732 889.082 428.598 857.022 418.142 822.326 z"/>
<path transform="translate(0,0)" fill="rgb(229,218,188)" d="M 531.745 1020.49 L 1536.18 1020.83 C 1501.39 1063.64 1471.22 1088.09 1425.92 1118.58 C 1334.03 1176.75 1225.58 1207.35 1117.34 1212.66 C 1069.76 1213.91 1022.66 1212.16 975 1213.02 C 822.397 1215.79 664.125 1166.88 551.612 1061.01 C 538.072 1048.26 526.524 1034.58 514.609 1020.62 L 531.745 1020.49 z"/>
<path transform="translate(0,0)" fill="rgb(202,119,13)" d="M 423.002 827.69 C 433.415 832.113 443.884 836.405 454.404 840.566 C 604.723 899.159 816.343 928.74 978.002 932.876 C 1177.23 937.973 1448.18 907.078 1629.98 827.115 C 1622.08 849.439 1615.55 870.519 1607.05 892.897 C 1590.63 935.544 1567.02 982.015 1538.52 1017.95 C 1477.53 1016.42 1411.4 1017.62 1349.91 1017.6 L 974.017 1017.7 L 664.787 1017.73 C 615.63 1017.78 560.694 1016.07 512.219 1017.95 C 471.067 966.189 439.164 891.807 423.002 827.69 z"/>
<path transform="translate(0,0)" fill="rgb(12,14,15)" d="M 671.185 1275.69 C 752.61 1308.5 838.958 1327.43 926.64 1331.7 C 973.316 1333.96 1021.2 1331.15 1067.86 1332.31 C 1178.09 1335.04 1276.79 1314.63 1379.86 1276.06 C 1397.46 1290.07 1412.8 1306.7 1425.34 1325.37 C 1464.85 1383.86 1465.16 1438.38 1464.13 1505.54 C 1463.41 1552.85 1471.18 1589.86 1425.6 1620.13 C 1417.11 1625.58 1401.35 1631.14 1391.32 1631.31 C 1361.51 1631.82 1330.94 1631.16 1301.1 1631.12 L 1111.56 1631.18 L 812.279 1631.09 L 712.26 1631.08 C 674.235 1631.12 637.645 1637.69 609.062 1606.75 C 599.945 1596.77 593.509 1584.65 590.36 1571.51 C 584.715 1548.38 588.452 1524.19 587.512 1501 C 583.661 1405.91 597.8 1342.78 671.185 1275.69 z"/>
<path transform="translate(0,0)" fill="rgb(229,218,188)" d="M 671.749 1279.73 C 683.401 1282.92 704.327 1291.43 717.033 1295.62 C 748.587 1306.14 780.8 1314.58 813.463 1320.88 C 902.184 1338.25 985.241 1335.95 1074.7 1335.32 C 1090.09 1335.21 1105.79 1335.5 1121.15 1334.78 C 1209.48 1330.59 1296.52 1311.9 1378.79 1279.45 C 1395.39 1292.68 1409.87 1308.37 1421.72 1325.97 C 1461.66 1384.43 1462.36 1438.31 1461.08 1505.68 C 1460.19 1552.32 1468.29 1587.95 1423.54 1618.19 C 1399.43 1632.4 1370.73 1628.73 1343.64 1628.56 L 1267.21 1628.42 L 1015.13 1628.34 L 773.614 1628.31 L 704.844 1628.28 C 668.033 1628.42 635.503 1633.49 609.114 1602.1 C 601.187 1592.52 595.649 1581.18 592.957 1569.04 C 589.008 1551.61 590.302 1514.7 590.347 1495.65 C 590.394 1475.94 589.956 1448.67 591.829 1429.74 C 597.778 1371.2 626.478 1317.33 671.749 1279.73 z"/>
<path transform="translate(0,0)" fill="rgb(202,119,13)" d="M 1008.76 596.447 C 1137.45 587.842 1322.75 642.67 1364.96 779.371 C 1265.25 800.507 1143.96 810.84 1042.25 812.537 C 919.391 813.657 807.631 801.355 686.984 779.861 C 723.303 664.113 861.545 606.038 973.47 598.053 C 985.268 597.211 996.945 596.772 1008.76 596.447 z"/>
<path transform="translate(0,0)" fill="rgb(12,14,15)" d="M 1220.38 695.736 C 1238.01 693.599 1254.08 706.019 1256.47 723.617 C 1258.85 741.214 1246.65 757.463 1229.09 760.091 C 1217.51 761.825 1205.89 757.189 1198.69 747.959 C 1191.48 738.728 1189.8 726.333 1194.29 715.519 C 1198.79 704.704 1208.75 697.145 1220.38 695.736 z"/>
<path transform="translate(0,0)" fill="rgb(12,14,15)" d="M 1108.97 711.31 C 1126.79 708.8 1143.23 721.284 1145.6 739.115 C 1147.97 756.946 1135.36 773.294 1117.51 775.526 C 1099.86 777.733 1083.73 765.29 1081.38 747.654 C 1079.04 730.019 1091.36 713.793 1108.97 711.31 z"/>
<path transform="translate(0,0)" fill="rgb(12,14,15)" d="M 1022.14 641.583 C 1039.45 637.916 1056.48 648.846 1060.36 666.104 C 1064.25 683.363 1053.53 700.534 1036.32 704.63 C 1025 707.325 1013.1 703.722 1005.17 695.196 C 997.246 686.671 994.518 674.542 998.03 663.444 C 1001.54 652.346 1010.75 643.995 1022.14 641.583 z"/>
<path transform="translate(0,0)" fill="rgb(12,14,15)" d="M 946.111 711.231 C 963.656 709.067 979.663 721.457 981.966 738.984 C 984.27 756.511 972.007 772.616 954.499 775.059 C 936.793 777.529 920.466 765.098 918.136 747.373 C 915.807 729.648 928.368 713.42 946.111 711.231 z"/>
<path transform="translate(0,0)" fill="rgb(12,14,15)" d="M 828.475 697.52 C 845.464 693.049 862.888 703.081 867.552 720.018 C 872.216 736.956 862.383 754.492 845.499 759.348 C 834.406 762.539 822.454 759.52 814.205 751.446 C 805.956 743.371 802.684 731.486 805.637 720.328 C 808.59 709.169 817.312 700.458 828.475 697.52 z"/>
<path transform="translate(0,0)" fill="rgb(12,14,15)" d="M 917.057 224.209 C 957.864 220.255 975.996 267.833 986.966 299.746 C 1006.18 355.649 1002.87 425.855 976.408 478.872 C 967.09 497.543 952.766 520.091 931.933 526.898 C 919.543 528.695 910.027 528.637 898.736 521.626 C 891.627 517.242 886.045 510.771 882.754 503.095 C 873.864 482.411 882.926 470.839 891.402 454.873 C 895.656 446.816 899.377 438.488 902.54 429.943 C 909.585 410.263 912.621 389.371 911.467 368.499 C 910.645 351.013 903.958 320.017 895.405 304.95 C 877.863 274.049 870.3 234.504 917.057 224.209 z"/>
<path transform="translate(0,0)" fill="rgb(202,119,13)" d="M 915.872 227.198 C 924.718 226.473 931.603 226.273 939.952 230.297 C 959.401 239.671 974.327 273.888 981.459 292.589 C 1002.64 348.129 1001.5 419.084 975.62 472.916 C 966.356 492.186 953.355 515.703 932.265 523.516 C 922.6 525.69 914.564 525.583 905.276 521.543 C 895.565 517.423 888.042 509.4 884.554 499.444 C 877.356 478.53 889.875 464.174 898.114 447.748 C 927.22 389.721 914.521 335.306 887.683 279.521 C 877.088 257.499 890.457 234.325 915.872 227.198 z"/>
<path transform="translate(0,0)" fill="rgb(12,14,15)" d="M 1133.92 224.174 C 1172.06 220.847 1188 262.204 1198.78 292.241 C 1218.88 348.308 1216.63 419.309 1190.17 472.956 C 1180.86 491.834 1165.32 519.55 1144.2 526.605 C 1132.28 528.987 1123.56 528.508 1112.91 522.229 C 1098.5 515.181 1087.91 491.113 1094.6 475.847 C 1100.75 461.816 1109.29 448.736 1115.36 433.303 C 1122.56 415.165 1126.14 395.798 1125.91 376.287 C 1125.54 352.378 1120.69 328.751 1111.61 306.632 C 1107.46 296.307 1101.38 284.859 1098.95 274.176 C 1093.03 248.095 1110 229.65 1133.92 224.174 z"/>
<path transform="translate(0,0)" fill="rgb(202,119,13)" d="M 1133.98 227.175 C 1153.35 225.253 1165.41 234.272 1175.35 250.04 C 1223.68 326.711 1221.6 440.818 1161.95 511.02 C 1156.52 517.416 1151.48 520.913 1143.57 523.621 C 1123.08 528.391 1103.18 517.525 1097.12 497.002 C 1092.28 480.422 1100.34 470.272 1107.82 457.015 C 1133.2 412.077 1133.88 363.674 1118.21 315.337 C 1110.96 293.01 1091.62 268.838 1106.06 245.574 C 1112.96 234.46 1121.73 230.243 1133.98 227.175 z"/>
</svg>
