<svg version="1.1" xmlns="http://www.w3.org/2000/svg" style="display: block;" viewBox="0 0 2048 2048" width="1024" height="1024" preserveAspectRatio="none">
<path transform="translate(0,0)" fill="rgb(6,6,6)" d="M 881.076 204.414 C 895.507 203.382 917.548 204.011 932.53 204.009 L 1028.17 204.024 L 1118.36 204.048 C 1142.65 204.041 1174.73 202.926 1197.95 207.818 C 1226.57 213.747 1253.24 226.763 1275.52 245.673 C 1309.9 275.07 1331.16 316.949 1334.59 362.052 C 1335.58 375.635 1335.24 393.335 1335.16 407.254 C 1335 437.683 1338.71 466.995 1316.85 491.355 C 1298.09 512.248 1280.21 515.328 1253.96 516.989 L 1253.98 639.93 C 1254.31 691.233 1273.44 694.102 1311.76 720.172 C 1328.93 731.894 1344.95 745.2 1359.63 759.914 C 1425.64 825.066 1460.82 902.478 1461.43 995.646 L 1461.67 1381.12 L 1461.34 1482.54 C 1461.33 1516.46 1463.2 1554.37 1456.23 1587.09 C 1446.96 1629.46 1425.88 1668.33 1395.43 1699.2 C 1357.79 1737.69 1307.8 1761.71 1254.22 1767.03 C 1232.12 1769.1 1198 1768.14 1174.75 1768.12 L 820.047 1768.11 C 755.053 1767.62 699.407 1742.97 653.922 1696.55 C 624.799 1666.73 604.821 1629.21 596.349 1588.4 C 589.345 1555.35 590.936 1518.51 590.896 1484.52 L 590.812 1373.49 C 590.746 1245.83 590.664 1117.99 591.125 990.494 C 591.495 888.114 640.833 800.209 718.662 736.547 C 725.727 730.546 732.861 725.255 740.47 719.969 C 760.397 706.125 790.462 692.698 794.928 665.878 C 798.109 646.782 796.878 624.4 796.814 604.879 L 796.681 516.257 C 775.722 515.809 760.339 513.132 743.776 499.282 C 712.926 473.485 717.557 436.87 717.734 400.98 C 717.8 387.69 717.216 373.99 718.257 360.85 C 721.209 324.69 735.562 290.401 759.249 262.921 C 790.397 227.083 834.117 207.584 881.076 204.414 z"/>
<path transform="translate(0,0)" fill="rgb(252,252,252)" d="M 632.944 1016.87 L 1419.16 1017.11 L 1419.47 1463.72 C 1395.51 1464.69 1364.84 1463.75 1340.48 1463.72 L 1188.63 1463.7 L 632.99 1463.74 L 632.944 1016.87 z"/>
<path transform="translate(0,0)" fill="rgb(252,252,252)" d="M 838.516 516.762 C 893.548 516.002 950.7 516.804 1005.88 516.823 L 1212.21 516.781 L 1212.2 607.966 C 1212.22 625.175 1211.4 646.149 1213.29 662.909 C 1219.98 722.228 1264.16 734.808 1304.21 766.253 C 1355.35 806.409 1394.9 863.05 1411.01 926.229 C 1415.45 943.66 1416.98 957.301 1419.01 974.939 L 1376.23 975.382 C 1375.07 967.232 1374.44 959.097 1373.02 950.874 C 1363.83 897.393 1332.07 846.032 1291.31 810.703 C 1278.25 799.376 1265.77 791.457 1251.91 781.497 C 1232.55 798.202 1230.42 804.97 1206.05 819.873 C 1140.34 858.644 1065 852.402 995.499 828.838 C 962.902 817.66 934.564 805.862 899.853 802.69 C 791.574 792.798 684.084 861.354 674.874 975.605 C 660.925 975.792 646.974 975.611 633.035 975.064 C 635.118 958.099 637.347 941.103 641.821 924.492 C 658.498 861.538 696.529 807.54 747.394 767.432 C 779.322 742.256 821.56 724.418 833.434 682.092 C 840.406 657.242 838.272 627.731 838.264 601.859 C 838.128 573.493 838.212 545.127 838.516 516.762 z"/>
<path transform="translate(0,0)" fill="rgb(50,77,233)" d="M 888.844 245.427 C 903.843 244.923 919.389 245.199 934.433 245.178 C 979.353 245.117 1024.28 245.157 1069.2 245.157 L 1128.66 245.136 C 1150.39 245.093 1175.38 243.622 1196.25 249.405 C 1253.96 265.395 1293.05 314.681 1293.18 374.945 C 1293.21 388.796 1292.61 408.294 1293.33 421.434 C 1296.48 478.421 1274.31 474.984 1229.27 474.977 L 1164.5 474.899 L 906.305 474.9 L 830.067 474.837 C 800.353 474.801 758.641 481.911 759.244 439.935 C 760.015 386.261 751.473 330.906 792.385 288.478 C 821.036 258.765 848.555 247.52 888.844 245.427 z"/>
<path transform="translate(0,0)" fill="rgb(237,60,80)" d="M 716.702 1504.79 C 785.884 1503.49 861.022 1505.02 930.781 1505.01 L 1334.98 1505.24 C 1335.12 1550.87 1334.13 1575.02 1301.11 1609.78 C 1267.31 1641.6 1244.72 1643.37 1200.97 1643.6 L 933.715 1643.56 L 860.398 1643.47 C 845.874 1643.44 822.609 1644.1 808.898 1641.37 C 786.616 1636.89 766.144 1625.96 750.035 1609.93 C 718.246 1578.12 716.917 1546.03 716.702 1504.79 z"/>
<path transform="translate(0,0)" fill="rgb(237,60,80)" d="M 1255 834.796 C 1295.81 861.32 1331.54 927.195 1333.45 975.836 L 751.812 975.346 L 716.656 975.184 C 727.583 871.544 840.656 822.835 932.068 851.003 C 956.502 858.532 980.136 868.115 1004.57 874.878 C 1031.91 882.51 1060.04 887.009 1088.4 888.291 C 1147.11 891.049 1210.79 875.027 1255 834.796 z"/>
<path transform="translate(0,0)" fill="rgb(252,252,252)" d="M 633.087 1504.22 C 646.832 1504.16 660.577 1504.3 674.318 1504.65 C 674.716 1559.77 679.922 1597.46 720.777 1639.23 C 751.162 1670.29 790.838 1685.64 833.991 1685.58 C 922.519 1685.46 1011.02 1685.48 1099.54 1685.54 L 1181.34 1685.61 C 1202.45 1685.62 1229.9 1686.59 1250.06 1682.41 C 1280.46 1676.25 1308.45 1661.47 1330.68 1639.85 C 1353.27 1617.55 1371.01 1584.72 1375.2 1553.06 C 1377.14 1538.44 1376.89 1519.81 1376.97 1504.88 C 1390.92 1504.68 1405.31 1504.91 1419.29 1504.97 L 1419.08 1544.92 L 1419.09 1546.04 C 1418.81 1590.68 1395.96 1641.02 1363.81 1671.61 C 1339 1695.21 1308.64 1713.9 1275 1721.68 C 1246.93 1728.17 1216.97 1726.32 1188.23 1726.25 L 1095.96 1726.11 L 823.492 1726.59 C 770.124 1726.3 725.923 1709.35 687.369 1671.45 C 658.199 1642.78 637.532 1601.15 633.865 1560.44 C 632.322 1543.3 632.953 1521.93 633.087 1504.22 z"/>
</svg>