<svg version="1.1" xmlns="http://www.w3.org/2000/svg" style="display: block;" viewBox="0 0 2048 2048" width="1024" height="1024" preserveAspectRatio="none" xmlns:c2pa="http://c2pa.org/manifest">

<path transform="translate(0,0)" fill="rgb(0,0,0)" d="M 1001.45 884.41 C 1027.33 882.231 1099.78 885.882 1099.56 921.761 C 1099.48 934.16 1089.73 971.624 1087.19 986.533 C 1100.5 986.873 1108.65 986.769 1120.27 995.102 C 1130.93 1002.68 1138.1 1014.21 1140.19 1027.11 C 1145.13 1058.3 1121.12 1076.73 1092.96 1080.98 L 1093.01 1166.63 C 1133.58 1179 1171.04 1199.9 1202.88 1227.91 C 1260.35 1279.5 1295.21 1351.62 1299.94 1428.69 C 1303.97 1502.27 1275.97 1576.97 1226.97 1631.63 C 1176.46 1687.87 1105.72 1721.8 1030.25 1725.99 C 982.28 1728.52 934.46 1718.76 891.318 1697.64 C 824.995 1665.83 772.372 1605.02 748.024 1535.99 C 700.544 1401.4 763.095 1250.44 889.993 1186.91 C 906.343 1178.72 920.939 1173.12 938.38 1167.06 C 938.008 1138.05 938.135 1109.04 938.763 1080.03 C 924.564 1080.29 913.27 1077.95 902.336 1068.04 C 892.953 1059.68 887.468 1047.8 887.194 1035.24 C 887.042 1023.08 892.617 1009.49 901.404 1001.21 C 915.249 988.157 925.89 986.71 943.236 986.53 C 941.448 976.038 939.396 965.592 937.081 955.204 C 935.127 946.595 931.971 935.695 931.184 927.197 C 927.863 891.316 977.234 886.441 1001.45 884.41 z"/>
<path transform="translate(0,0)" fill="rgb(254,46,4)" d="M 966.808 1077.17 C 998.96 1077.05 1031.11 1077.12 1063.26 1077.35 L 1063.28 1146.37 C 1063.29 1158.85 1062.83 1171.28 1064.25 1183.76 C 1064.2 1191.84 1076.2 1194.11 1083.45 1196.27 C 1109.14 1203.91 1130.2 1214.79 1152.53 1229.54 C 1209.35 1266.97 1249.06 1325.35 1262.99 1391.94 C 1275.91 1457.69 1262.46 1525.88 1225.52 1581.78 C 1186.03 1640.74 1128.58 1677.54 1059.23 1691.09 C 1020.16 1697.46 980.154 1694.98 942.167 1683.83 C 878.168 1664.45 824.615 1620.21 793.503 1561.02 C 724.281 1430.96 779.46 1275.63 909.377 1212.3 C 927.6 1203.42 949.045 1197.69 965.476 1189.01 C 968.323 1182.1 966.84 1091.34 966.808 1077.17 z"/>
<path transform="translate(0,0)" fill="rgb(62,27,4)" d="M 1008.64 907.429 C 1028.83 905.822 1056.11 910.988 1074.3 920.642 C 1072.75 936.823 1064.84 968.62 1061.77 987.014 L 1022.5 986.896 L 968.483 986.888 L 954.29 921.636 C 971.275 911.117 988.981 908.87 1008.64 907.429 z"/>
<path transform="translate(0,0)" fill="rgb(254,46,4)" d="M 958.956 1012.51 L 1049.7 1011.93 C 1060.55 1011.87 1087.34 1010.18 1096.86 1012.5 C 1119.27 1017.95 1120.76 1040.5 1101.68 1052.79 C 1091.04 1053.75 1080.19 1053.55 1069.5 1053.56 C 1023.15 1053.66 971.218 1054.09 925.222 1053.03 C 917.36 1047.63 912.765 1040.02 913.993 1030.37 C 916.696 1009.14 944.079 1012.45 958.956 1012.51 z"/>
<path transform="translate(0,0)" fill="rgb(0,0,0)" d="M 1152.54 179.396 C 1184.81 177.021 1219.27 182.256 1248.93 195.05 C 1299.02 216.947 1342.02 262.962 1361.53 313.74 C 1394.38 399.269 1372.61 503.386 1297 558.916 C 1278.3 572.65 1252.93 585.374 1229.59 588.379 C 1170.92 595.933 1112.73 572.281 1055.17 564.453 C 1021.71 558.944 995.347 557.687 962.83 569.993 C 909.079 590.334 884.957 647.674 905.795 700.803 C 916.047 726.94 943.589 749.378 969.283 760.065 C 1022.33 782.126 1104.31 771.46 1128.8 712.393 C 1136.53 693.845 1136.35 668.076 1121.97 652.666 C 1115.53 645.765 1101.85 642.364 1097.69 633.047 C 1095.51 628.011 1103.17 620.884 1108.49 620.754 C 1127.21 620.296 1143.91 626.532 1158.33 638.371 C 1179.18 655.218 1192.33 679.773 1194.81 706.461 C 1204.43 808.696 1069.24 867.792 984.491 848.726 C 940.517 838.833 898.125 815.523 863.839 786.787 C 828.515 760.214 804.012 715.012 799.301 671.326 C 794.115 625.385 807.552 579.28 836.61 543.32 C 902.034 462.558 1007.45 467.875 1098.95 485.793 C 1126.23 491.135 1139.48 499.509 1168.42 496.196 C 1285.17 482.833 1328.59 352.664 1235.25 277.373 C 1169.04 224.486 1072.17 266.324 1084.5 356.034 C 1091.4 406.303 1157.06 395.354 1144.17 347.914 C 1139.32 330.064 1128.69 335.631 1124.9 330.429 C 1111.96 312.691 1137.91 303.663 1152.26 311.407 C 1228.32 348.541 1198.2 454.605 1119.12 463.991 C 1052.99 471.839 1007.63 418.787 1000.72 357.508 C 996.115 314.452 1008.84 271.333 1036.08 237.673 C 1066 200.787 1106.35 184.149 1152.54 179.396 z"/>
<path transform="translate(0,0)" fill="rgb(145,161,25)" d="M 1169.88 360.414 C 1174.61 382.189 1174.64 398.205 1159.67 416.363 C 1148.02 430.676 1131.02 439.6 1112.62 441.058 C 1092.48 442.809 1072.49 436.265 1057.28 422.938 C 1035.62 404.315 1025.24 376.667 1023.42 348.685 C 1021.18 311.617 1033.82 275.186 1058.53 247.469 C 1116.21 182.638 1227.07 192.207 1287.41 247.69 C 1327.12 284.212 1351.76 331.982 1353.79 386.502 C 1355.59 434.965 1338.63 484.354 1305.42 520.056 C 1261.39 566.032 1219.46 572.764 1159.69 561.202 C 1108.86 551.37 1055.04 536.571 1003.5 537.097 C 968.914 537.451 927.356 555.182 904.25 581.003 C 882.202 605.442 874.999 636.693 876.629 669.061 C 878.361 702.552 893.371 733.971 918.335 756.364 C 949.761 784.426 993.547 796.698 1035.39 794.781 C 1095.92 792.007 1161.56 746.51 1155.84 679.317 L 1155.72 678.014 L 1155.36 673.753 L 1156.27 672.732 C 1157.78 674.68 1158.07 674.893 1159.22 677.037 C 1187.96 725.983 1158.22 777.408 1113.23 802.375 C 1071.43 825.566 1027.25 835.494 979.872 822.928 C 923.895 808.08 869.759 772.855 838.902 723.055 C 800.696 657.649 825.788 566.301 889.689 526.228 C 954.217 485.763 1022.55 498.809 1093.05 511.36 C 1112.83 514.149 1134.37 521.069 1154.36 520.326 C 1221.25 517.841 1286.13 479.817 1303.96 413.815 C 1313.85 377.351 1308.64 338.441 1289.5 305.863 C 1269.77 271.544 1240.25 246.747 1201.69 236.455 C 1172.3 228.216 1137.5 231.755 1111.13 247.294 C 1076.14 267.916 1056.62 309.23 1060.38 349.315 C 1061.76 364.123 1064.58 374.677 1072.16 387.429 C 1093.09 422.611 1143.3 420.581 1162.48 384.768 C 1167.27 375.831 1168.18 370.25 1169.88 360.414 z"/>
<path transform="translate(0,0)" fill="rgb(0,0,0)" d="M 1000.96 626.183 C 999.19 619.386 995.708 608.897 999.438 602.491 C 1002.43 597.345 1007.45 595.055 1012.72 598.571 L 1012.57 600.219 C 1010.2 601.707 1008.06 602.954 1005.64 604.319 C 1003.92 607.848 1003.1 623.803 1006.02 624.541 C 1013.29 626.376 1016.46 626.733 1023 630.813 C 1024.48 634.255 1025.66 638.251 1028.59 640.288 L 1030.32 639.535 C 1032.57 634.713 1032.64 631.473 1033.31 626.221 C 1038.4 624.382 1042.56 623.467 1047.78 622.237 C 1050.86 621.906 1054.08 621.088 1056.67 622.403 C 1054.49 624.08 1054.65 623.973 1051.95 624.531 C 1048.07 625.839 1043.03 627.372 1039.35 628.933 C 1038.79 635.102 1038.64 636.621 1036.73 642.712 C 1053.95 648.857 1053.88 653.254 1073.31 656.768 C 1076.1 666.979 1084.77 680.957 1084.55 690.584 L 1083.35 692.617 L 1081.92 692.62 C 1075.67 685.117 1072.48 665.163 1066.12 662.196 L 1065.35 663.455 C 1068.96 673.762 1073.6 680.312 1073.89 691.613 C 1074.68 722.591 1049.03 734.022 1022.37 722.755 C 1018.92 720.541 1014.52 717.161 1010.68 716.622 C 1012.42 719.782 1016.44 721.901 1019.71 723.89 C 1023.82 726.454 1033.21 731.164 1033.76 735.794 L 1032.37 736.988 C 1025.18 736.772 1011.08 724.083 1002.34 720.686 C 1001.52 703.655 995.468 696.033 992.372 679.338 L 976.92 684.595 C 975.631 687.563 974.119 691.962 971.419 693.483 C 970.254 690.247 971.556 684.759 972.099 681.095 C 978.465 677.168 989.251 673.682 996.944 670.07 C 984.752 664.07 981.97 659.692 980.908 645.93 C 974.768 642.938 967.34 638.825 960.774 642.089 C 958.256 645.474 957.89 647.481 953.705 646.84 C 951.169 640.787 957.038 636.037 962.549 634.946 C 970.3 633.411 976.57 637.176 982.906 641.075 C 989.16 632.309 991.542 630.806 1000.96 626.183 z"/>
</svg>